<mxfile host="www.draw.io" modified="2020-01-31T05:45:33.333Z" agent="Mozilla/5.0 (Windows NT 10.0; Win64; x64) AppleWebKit/537.36 (KHTML, like Gecko) Chrome/79.0.3945.130 Safari/537.36" etag="JZr5G2I9rQCQ08k-y5JV" version="12.6.2" type="github">
  <diagram id="ZUuNPeUuPKprhiljHhsP" name="Page-1">
    <mxGraphModel dx="2893" dy="1443" grid="1" gridSize="10" guides="1" tooltips="1" connect="1" arrows="1" fold="1" page="1" pageScale="1" pageWidth="850" pageHeight="1100" math="0" shadow="0">
      <root>
        <mxCell id="0"/>
        <mxCell id="1" parent="0"/>
        <mxCell id="5FQkL91_oub3n9h8Phgb-366" value="" style="verticalLabelPosition=bottom;verticalAlign=top;html=1;shadow=0;dashed=0;strokeWidth=1;shape=mxgraph.android.contact_badge_pressed;labelBackgroundColor=#ffffff;fillColor=#ffffff;opacity=40;" vertex="1" parent="1">
          <mxGeometry x="370" y="690" width="185" height="287.5" as="geometry"/>
        </mxCell>
        <mxCell id="5FQkL91_oub3n9h8Phgb-363" value="" style="verticalLabelPosition=bottom;verticalAlign=top;html=1;shadow=0;dashed=0;strokeWidth=1;shape=mxgraph.android.contact_badge_pressed;labelBackgroundColor=#ffffff;fillColor=#ffffff;opacity=40;" vertex="1" parent="1">
          <mxGeometry x="98" y="172.5" width="185" height="287.5" as="geometry"/>
        </mxCell>
        <mxCell id="5FQkL91_oub3n9h8Phgb-25" value="" style="verticalLabelPosition=bottom;verticalAlign=top;html=1;shadow=0;dashed=0;strokeWidth=1;shape=mxgraph.android.phone2;strokeColor=#c0c0c0;" vertex="1" parent="1">
          <mxGeometry x="85" y="80" width="210" height="470" as="geometry"/>
        </mxCell>
        <mxCell id="5FQkL91_oub3n9h8Phgb-31" value="" style="strokeWidth=1;html=1;shadow=0;dashed=0;shape=mxgraph.android.statusBar;align=center;fillColor=#000000;strokeColor=#ffffff;fontColor=#ffffff;fontSize=10;" vertex="1" parent="1">
          <mxGeometry x="95" y="123" width="190" height="15.82" as="geometry"/>
        </mxCell>
        <mxCell id="5FQkL91_oub3n9h8Phgb-39" value="" style="verticalLabelPosition=bottom;verticalAlign=top;html=1;shadow=0;dashed=0;strokeWidth=1;strokeColor=none;shape=rect;fillColor=#21CCBB;" vertex="1" parent="1">
          <mxGeometry x="95" y="460" width="190" height="48.5" as="geometry"/>
        </mxCell>
        <mxCell id="5FQkL91_oub3n9h8Phgb-42" value="" style="shape=image;verticalLabelPosition=bottom;labelBackgroundColor=#ffffff;verticalAlign=top;aspect=fixed;imageAspect=0;image=data:image/png,iVBORw0KGgoAAAANSUhEUgAAABgAAAAYCAYAAADgdz34AAAABmJLR0QA/wD/AP+gvaeTAAAAoElEQVRIie3SsQnCYBCG4ccIgthaiRtYWoprpA64jytYuoMDCIKtvUMolrEwRYxJSMSQgHnhh587vnuLO3raZpD6x03MDn489IP/EaywblIQeD+IynT2im4Ica8TigveOacWJpmoJFdJcMAQ+1Rtm8ntvhVcMU16Y5xwxCiTm+BSV/DAMtOfY5YXxMJrL5UFm4JBZUR5gs6eaWUaF/S0zxNfyUBlzI9w+QAAAABJRU5ErkJggg==;" vertex="1" parent="1">
          <mxGeometry x="103" y="470" width="41.25" height="41.25" as="geometry"/>
        </mxCell>
        <mxCell id="5FQkL91_oub3n9h8Phgb-45" value="" style="shape=image;verticalLabelPosition=bottom;labelBackgroundColor=#ffffff;verticalAlign=top;aspect=fixed;imageAspect=0;image=data:image/png,iVBORw0KGgoAAAANSUhEUgAAABgAAAAYCAYAAADgdz34AAAABmJLR0QA/wD/AP+gvaeTAAAAOUlEQVRIiWNgGAUEACMB+f+UmsNEvFsGKcDlNWKDhqB5wy+IyA0anObSPIhGLRi1YNSC4WDBKCAIALMiAx6CERO/AAAAAElFTkSuQmCC;" vertex="1" parent="1">
          <mxGeometry x="227" y="467.25" width="40" height="40" as="geometry"/>
        </mxCell>
        <mxCell id="5FQkL91_oub3n9h8Phgb-51" value="" style="ellipse;shape=doubleEllipse;whiteSpace=wrap;html=1;aspect=fixed;fillColor=#f8cecc;strokeColor=none;" vertex="1" parent="1">
          <mxGeometry x="227" y="390" width="50" height="50" as="geometry"/>
        </mxCell>
        <mxCell id="5FQkL91_oub3n9h8Phgb-49" value="" style="shape=image;verticalLabelPosition=bottom;labelBackgroundColor=#ffffff;verticalAlign=top;aspect=fixed;imageAspect=0;image=data:image/png,iVBORw0KGgoAAAANSUhEUgAAABgAAAAYCAYAAADgdz34AAAABmJLR0QA/wD/AP+gvaeTAAAAaUlEQVRIiWNgwA7+QzGxAKd6JhIMIQvQxYKjDAgvYvPmfwIYn/rDjFgUMWLRgA/gVY/NAqoCusTBERqafxjGIDXdEwJw8wYsH6D7iFQ+QQuoDkbjYDQOyAejcUDQPJr7gAWLzVQFNPcBACOSQfnE4kc2AAAAAElFTkSuQmCC;" vertex="1" parent="1">
          <mxGeometry x="238" y="400" width="30" height="30" as="geometry"/>
        </mxCell>
        <mxCell id="5FQkL91_oub3n9h8Phgb-63" value="image" style="verticalLabelPosition=bottom;verticalAlign=top;html=1;shadow=0;dashed=0;strokeWidth=1;strokeColor=none;shape=rect;fillColor=#21CCBB;" vertex="1" parent="1">
          <mxGeometry x="95.97999999999999" y="140" width="189" height="30" as="geometry"/>
        </mxCell>
        <mxCell id="5FQkL91_oub3n9h8Phgb-69" value="" style="verticalLabelPosition=bottom;verticalAlign=top;html=1;shadow=0;dashed=0;strokeWidth=1;shape=mxgraph.android.phone2;strokeColor=#c0c0c0;" vertex="1" parent="1">
          <mxGeometry x="615" y="80" width="210" height="470" as="geometry"/>
        </mxCell>
        <mxCell id="5FQkL91_oub3n9h8Phgb-70" value="" style="strokeWidth=1;html=1;shadow=0;dashed=0;shape=mxgraph.android.statusBar;align=center;fillColor=#000000;strokeColor=#ffffff;fontColor=#ffffff;fontSize=10;" vertex="1" parent="1">
          <mxGeometry x="625" y="123" width="190" height="15.82" as="geometry"/>
        </mxCell>
        <mxCell id="5FQkL91_oub3n9h8Phgb-72" value="" style="verticalLabelPosition=bottom;verticalAlign=top;html=1;shadow=0;dashed=0;strokeWidth=1;strokeColor=#21CCBB;shape=rect;fillColor=#21CCBB;" vertex="1" parent="1">
          <mxGeometry x="625" y="460" width="190" height="48.5" as="geometry"/>
        </mxCell>
        <mxCell id="5FQkL91_oub3n9h8Phgb-73" value="" style="shape=image;verticalLabelPosition=bottom;labelBackgroundColor=#ffffff;verticalAlign=top;aspect=fixed;imageAspect=0;image=data:image/png,iVBORw0KGgoAAAANSUhEUgAAABgAAAAYCAYAAADgdz34AAAABmJLR0QA/wD/AP+gvaeTAAAAoElEQVRIie3SsQnCYBCG4ccIgthaiRtYWoprpA64jytYuoMDCIKtvUMolrEwRYxJSMSQgHnhh587vnuLO3raZpD6x03MDn489IP/EaywblIQeD+IynT2im4Ica8TigveOacWJpmoJFdJcMAQ+1Rtm8ntvhVcMU16Y5xwxCiTm+BSV/DAMtOfY5YXxMJrL5UFm4JBZUR5gs6eaWUaF/S0zxNfyUBlzI9w+QAAAABJRU5ErkJggg==;" vertex="1" parent="1">
          <mxGeometry x="633" y="470" width="41.25" height="41.25" as="geometry"/>
        </mxCell>
        <mxCell id="5FQkL91_oub3n9h8Phgb-74" value="" style="shape=image;verticalLabelPosition=bottom;labelBackgroundColor=#ffffff;verticalAlign=top;aspect=fixed;imageAspect=0;image=data:image/png,iVBORw0KGgoAAAANSUhEUgAAABgAAAAYCAYAAADgdz34AAAABmJLR0QA/wD/AP+gvaeTAAAAOUlEQVRIiWNgGAUEACMB+f+UmsNEvFsGKcDlNWKDhqB5wy+IyA0anObSPIhGLRi1YNSC4WDBKCAIALMiAx6CERO/AAAAAElFTkSuQmCC;" vertex="1" parent="1">
          <mxGeometry x="757" y="467.25" width="40" height="40" as="geometry"/>
        </mxCell>
        <mxCell id="5FQkL91_oub3n9h8Phgb-77" value="image" style="verticalLabelPosition=bottom;verticalAlign=top;html=1;shadow=0;dashed=0;strokeWidth=1;strokeColor=none;shape=rect;fillColor=#21CCBB;" vertex="1" parent="1">
          <mxGeometry x="625.98" y="140" width="189" height="30" as="geometry"/>
        </mxCell>
        <mxCell id="5FQkL91_oub3n9h8Phgb-78" value="" style="strokeWidth=1;shadow=0;dashed=0;align=center;html=1;shape=mxgraph.mockup.forms.rrect;rSize=5;strokeColor=#999999;fillColor=#ffffff;labelBackgroundColor=#ffffff;" vertex="1" parent="1">
          <mxGeometry x="641.97" y="210" width="174.01" height="248.75" as="geometry"/>
        </mxCell>
        <mxCell id="5FQkL91_oub3n9h8Phgb-365" value="" style="verticalLabelPosition=bottom;verticalAlign=top;html=1;shadow=0;dashed=0;strokeWidth=1;shape=mxgraph.android.contact_badge_pressed;labelBackgroundColor=#ffffff;fillColor=#ffffff;opacity=40;" vertex="1" parent="5FQkL91_oub3n9h8Phgb-78">
          <mxGeometry x="-15.990000000000009" y="-38.75" width="185" height="287.5" as="geometry"/>
        </mxCell>
        <mxCell id="5FQkL91_oub3n9h8Phgb-79" value="October 2014" style="strokeWidth=1;shadow=0;dashed=0;align=center;html=1;shape=mxgraph.mockup.forms.anchor;fontColor=#999999;" vertex="1" parent="5FQkL91_oub3n9h8Phgb-78">
          <mxGeometry x="30.568125000000002" y="9.6" width="101.89375000000001" height="24" as="geometry"/>
        </mxCell>
        <mxCell id="5FQkL91_oub3n9h8Phgb-80" value="&lt;" style="strokeWidth=1;shadow=0;dashed=0;align=center;html=1;shape=mxgraph.mockup.forms.rrect;rSize=4;strokeColor=#999999;fontColor=#008cff;fontSize=19;fontStyle=1;" vertex="1" parent="5FQkL91_oub3n9h8Phgb-78">
          <mxGeometry x="8.1515" y="9.6" width="25.473437500000003" height="24" as="geometry"/>
        </mxCell>
        <mxCell id="5FQkL91_oub3n9h8Phgb-81" value="&gt;" style="strokeWidth=1;shadow=0;dashed=0;align=center;html=1;shape=mxgraph.mockup.forms.rrect;rSize=4;strokeColor=#999999;fontColor=#008cff;fontSize=19;fontStyle=1;" vertex="1" parent="5FQkL91_oub3n9h8Phgb-78">
          <mxGeometry x="129.4050625" y="9.6" width="25.473437500000003" height="24" as="geometry"/>
        </mxCell>
        <mxCell id="5FQkL91_oub3n9h8Phgb-82" value="Mo" style="strokeWidth=1;shadow=0;dashed=0;align=center;html=1;shape=mxgraph.mockup.forms.anchor;fontColor=#999999;" vertex="1" parent="5FQkL91_oub3n9h8Phgb-78">
          <mxGeometry x="10.189375" y="33.6" width="20.37875" height="24" as="geometry"/>
        </mxCell>
        <mxCell id="5FQkL91_oub3n9h8Phgb-83" value="Tu" style="strokeWidth=1;shadow=0;dashed=0;align=center;html=1;shape=mxgraph.mockup.forms.anchor;fontColor=#999999;" vertex="1" parent="5FQkL91_oub3n9h8Phgb-78">
          <mxGeometry x="30.568125000000002" y="33.6" width="20.37875" height="24" as="geometry"/>
        </mxCell>
        <mxCell id="5FQkL91_oub3n9h8Phgb-84" value="We" style="strokeWidth=1;shadow=0;dashed=0;align=center;html=1;shape=mxgraph.mockup.forms.anchor;fontColor=#999999;" vertex="1" parent="5FQkL91_oub3n9h8Phgb-78">
          <mxGeometry x="50.946875000000006" y="33.6" width="20.37875" height="24" as="geometry"/>
        </mxCell>
        <mxCell id="5FQkL91_oub3n9h8Phgb-85" value="Th" style="strokeWidth=1;shadow=0;dashed=0;align=center;html=1;shape=mxgraph.mockup.forms.anchor;fontColor=#999999;" vertex="1" parent="5FQkL91_oub3n9h8Phgb-78">
          <mxGeometry x="71.325625" y="33.6" width="20.37875" height="24" as="geometry"/>
        </mxCell>
        <mxCell id="5FQkL91_oub3n9h8Phgb-86" value="Fr" style="strokeWidth=1;shadow=0;dashed=0;align=center;html=1;shape=mxgraph.mockup.forms.anchor;fontColor=#999999;" vertex="1" parent="5FQkL91_oub3n9h8Phgb-78">
          <mxGeometry x="91.704375" y="33.6" width="20.37875" height="24" as="geometry"/>
        </mxCell>
        <mxCell id="5FQkL91_oub3n9h8Phgb-87" value="Sa" style="strokeWidth=1;shadow=0;dashed=0;align=center;html=1;shape=mxgraph.mockup.forms.anchor;fontColor=#999999;" vertex="1" parent="5FQkL91_oub3n9h8Phgb-78">
          <mxGeometry x="112.08312500000001" y="33.6" width="20.37875" height="24" as="geometry"/>
        </mxCell>
        <mxCell id="5FQkL91_oub3n9h8Phgb-88" value="Su" style="strokeWidth=1;shadow=0;dashed=0;align=center;html=1;shape=mxgraph.mockup.forms.anchor;fontColor=#999999;" vertex="1" parent="5FQkL91_oub3n9h8Phgb-78">
          <mxGeometry x="132.46187500000002" y="33.6" width="20.37875" height="24" as="geometry"/>
        </mxCell>
        <mxCell id="5FQkL91_oub3n9h8Phgb-89" value="1" style="strokeWidth=1;shadow=0;dashed=0;align=center;html=1;shape=mxgraph.mockup.forms.rrect;rSize=0;strokeColor=#999999;fontColor=#999999;" vertex="1" parent="5FQkL91_oub3n9h8Phgb-78">
          <mxGeometry x="10.189375" y="57.599999999999994" width="20.37875" height="24" as="geometry"/>
        </mxCell>
        <mxCell id="5FQkL91_oub3n9h8Phgb-90" value="2" style="strokeWidth=1;shadow=0;dashed=0;align=center;html=1;shape=mxgraph.mockup.forms.rrect;rSize=0;strokeColor=#999999;fontColor=#999999;" vertex="1" parent="5FQkL91_oub3n9h8Phgb-78">
          <mxGeometry x="30.568125000000002" y="57.599999999999994" width="20.37875" height="24" as="geometry"/>
        </mxCell>
        <mxCell id="5FQkL91_oub3n9h8Phgb-91" value="3" style="strokeWidth=1;shadow=0;dashed=0;align=center;html=1;shape=mxgraph.mockup.forms.rrect;rSize=0;strokeColor=#999999;fontColor=#999999;" vertex="1" parent="5FQkL91_oub3n9h8Phgb-78">
          <mxGeometry x="50.946875000000006" y="57.599999999999994" width="20.37875" height="24" as="geometry"/>
        </mxCell>
        <mxCell id="5FQkL91_oub3n9h8Phgb-92" value="4" style="strokeWidth=1;shadow=0;dashed=0;align=center;html=1;shape=mxgraph.mockup.forms.rrect;rSize=0;strokeColor=#999999;fontColor=#999999;" vertex="1" parent="5FQkL91_oub3n9h8Phgb-78">
          <mxGeometry x="71.325625" y="57.599999999999994" width="20.37875" height="24" as="geometry"/>
        </mxCell>
        <mxCell id="5FQkL91_oub3n9h8Phgb-93" value="5" style="strokeWidth=1;shadow=0;dashed=0;align=center;html=1;shape=mxgraph.mockup.forms.rrect;rSize=0;strokeColor=#999999;fontColor=#999999;" vertex="1" parent="5FQkL91_oub3n9h8Phgb-78">
          <mxGeometry x="91.704375" y="57.599999999999994" width="20.37875" height="24" as="geometry"/>
        </mxCell>
        <mxCell id="5FQkL91_oub3n9h8Phgb-94" value="6" style="strokeWidth=1;shadow=0;dashed=0;align=center;html=1;shape=mxgraph.mockup.forms.rrect;rSize=0;strokeColor=#999999;fontColor=#999999;" vertex="1" parent="5FQkL91_oub3n9h8Phgb-78">
          <mxGeometry x="112.08312500000001" y="57.599999999999994" width="20.37875" height="24" as="geometry"/>
        </mxCell>
        <mxCell id="5FQkL91_oub3n9h8Phgb-95" value="7" style="strokeWidth=1;shadow=0;dashed=0;align=center;html=1;shape=mxgraph.mockup.forms.rrect;rSize=0;strokeColor=#999999;fontColor=#999999;" vertex="1" parent="5FQkL91_oub3n9h8Phgb-78">
          <mxGeometry x="132.46187500000002" y="57.599999999999994" width="20.37875" height="24" as="geometry"/>
        </mxCell>
        <mxCell id="5FQkL91_oub3n9h8Phgb-96" value="8" style="strokeWidth=1;shadow=0;dashed=0;align=center;html=1;shape=mxgraph.mockup.forms.rrect;rSize=0;strokeColor=#999999;fontColor=#999999;" vertex="1" parent="5FQkL91_oub3n9h8Phgb-78">
          <mxGeometry x="10.189375" y="81.6" width="20.37875" height="24" as="geometry"/>
        </mxCell>
        <mxCell id="5FQkL91_oub3n9h8Phgb-97" value="9" style="strokeWidth=1;shadow=0;dashed=0;align=center;html=1;shape=mxgraph.mockup.forms.rrect;rSize=0;strokeColor=#999999;fontColor=#999999;" vertex="1" parent="5FQkL91_oub3n9h8Phgb-78">
          <mxGeometry x="30.568125000000002" y="81.6" width="20.37875" height="24" as="geometry"/>
        </mxCell>
        <mxCell id="5FQkL91_oub3n9h8Phgb-98" value="10" style="strokeWidth=1;shadow=0;dashed=0;align=center;html=1;shape=mxgraph.mockup.forms.rrect;rSize=0;strokeColor=#999999;fontColor=#999999;" vertex="1" parent="5FQkL91_oub3n9h8Phgb-78">
          <mxGeometry x="50.946875000000006" y="81.6" width="20.37875" height="24" as="geometry"/>
        </mxCell>
        <mxCell id="5FQkL91_oub3n9h8Phgb-99" value="11" style="strokeWidth=1;shadow=0;dashed=0;align=center;html=1;shape=mxgraph.mockup.forms.rrect;rSize=0;strokeColor=#999999;fontColor=#999999;" vertex="1" parent="5FQkL91_oub3n9h8Phgb-78">
          <mxGeometry x="71.325625" y="81.6" width="20.37875" height="24" as="geometry"/>
        </mxCell>
        <mxCell id="5FQkL91_oub3n9h8Phgb-100" value="12" style="strokeWidth=1;shadow=0;dashed=0;align=center;html=1;shape=mxgraph.mockup.forms.rrect;rSize=0;strokeColor=#999999;fontColor=#999999;" vertex="1" parent="5FQkL91_oub3n9h8Phgb-78">
          <mxGeometry x="91.704375" y="81.6" width="20.37875" height="24" as="geometry"/>
        </mxCell>
        <mxCell id="5FQkL91_oub3n9h8Phgb-101" value="13" style="strokeWidth=1;shadow=0;dashed=0;align=center;html=1;shape=mxgraph.mockup.forms.rrect;rSize=0;strokeColor=#999999;fontColor=#999999;" vertex="1" parent="5FQkL91_oub3n9h8Phgb-78">
          <mxGeometry x="112.08312500000001" y="81.6" width="20.37875" height="24" as="geometry"/>
        </mxCell>
        <mxCell id="5FQkL91_oub3n9h8Phgb-102" value="14" style="strokeWidth=1;shadow=0;dashed=0;align=center;html=1;shape=mxgraph.mockup.forms.rrect;rSize=0;strokeColor=#999999;fontColor=#999999;" vertex="1" parent="5FQkL91_oub3n9h8Phgb-78">
          <mxGeometry x="132.46187500000002" y="81.6" width="20.37875" height="24" as="geometry"/>
        </mxCell>
        <mxCell id="5FQkL91_oub3n9h8Phgb-103" value="15" style="strokeWidth=1;shadow=0;dashed=0;align=center;html=1;shape=mxgraph.mockup.forms.rrect;rSize=0;strokeColor=#999999;fontColor=#999999;" vertex="1" parent="5FQkL91_oub3n9h8Phgb-78">
          <mxGeometry x="10.189375" y="105.6" width="20.37875" height="24" as="geometry"/>
        </mxCell>
        <mxCell id="5FQkL91_oub3n9h8Phgb-104" value="16" style="strokeWidth=1;shadow=0;dashed=0;align=center;html=1;shape=mxgraph.mockup.forms.rrect;rSize=0;strokeColor=#999999;fontColor=#999999;" vertex="1" parent="5FQkL91_oub3n9h8Phgb-78">
          <mxGeometry x="30.568125000000002" y="105.6" width="20.37875" height="24" as="geometry"/>
        </mxCell>
        <mxCell id="5FQkL91_oub3n9h8Phgb-105" value="17" style="strokeWidth=1;shadow=0;dashed=0;align=center;html=1;shape=mxgraph.mockup.forms.rrect;rSize=0;strokeColor=#999999;fontColor=#999999;" vertex="1" parent="5FQkL91_oub3n9h8Phgb-78">
          <mxGeometry x="50.946875000000006" y="105.6" width="20.37875" height="24" as="geometry"/>
        </mxCell>
        <mxCell id="5FQkL91_oub3n9h8Phgb-106" value="18" style="strokeWidth=1;shadow=0;dashed=0;align=center;html=1;shape=mxgraph.mockup.forms.rrect;rSize=0;strokeColor=#999999;fontColor=#999999;" vertex="1" parent="5FQkL91_oub3n9h8Phgb-78">
          <mxGeometry x="71.325625" y="105.6" width="20.37875" height="24" as="geometry"/>
        </mxCell>
        <mxCell id="5FQkL91_oub3n9h8Phgb-107" value="19" style="strokeWidth=1;shadow=0;dashed=0;align=center;html=1;shape=mxgraph.mockup.forms.rrect;rSize=0;strokeColor=#999999;fontColor=#999999;" vertex="1" parent="5FQkL91_oub3n9h8Phgb-78">
          <mxGeometry x="91.704375" y="105.6" width="20.37875" height="24" as="geometry"/>
        </mxCell>
        <mxCell id="5FQkL91_oub3n9h8Phgb-108" value="20" style="strokeWidth=1;shadow=0;dashed=0;align=center;html=1;shape=mxgraph.mockup.forms.rrect;rSize=0;strokeColor=#999999;fontColor=#999999;" vertex="1" parent="5FQkL91_oub3n9h8Phgb-78">
          <mxGeometry x="112.08312500000001" y="105.6" width="20.37875" height="24" as="geometry"/>
        </mxCell>
        <mxCell id="5FQkL91_oub3n9h8Phgb-109" value="21" style="strokeWidth=1;shadow=0;dashed=0;align=center;html=1;shape=mxgraph.mockup.forms.rrect;rSize=0;strokeColor=#999999;fontColor=#999999;" vertex="1" parent="5FQkL91_oub3n9h8Phgb-78">
          <mxGeometry x="132.46187500000002" y="105.6" width="20.37875" height="24" as="geometry"/>
        </mxCell>
        <mxCell id="5FQkL91_oub3n9h8Phgb-110" value="22" style="strokeWidth=1;shadow=0;dashed=0;align=center;html=1;shape=mxgraph.mockup.forms.rrect;rSize=0;strokeColor=#999999;fontColor=#999999;" vertex="1" parent="5FQkL91_oub3n9h8Phgb-78">
          <mxGeometry x="10.189375" y="129.6" width="20.37875" height="24" as="geometry"/>
        </mxCell>
        <mxCell id="5FQkL91_oub3n9h8Phgb-111" value="23" style="strokeWidth=1;shadow=0;dashed=0;align=center;html=1;shape=mxgraph.mockup.forms.rrect;rSize=0;strokeColor=#999999;fontColor=#999999;" vertex="1" parent="5FQkL91_oub3n9h8Phgb-78">
          <mxGeometry x="30.568125000000002" y="129.6" width="20.37875" height="24" as="geometry"/>
        </mxCell>
        <mxCell id="5FQkL91_oub3n9h8Phgb-112" value="25" style="strokeWidth=1;shadow=0;dashed=0;align=center;html=1;shape=mxgraph.mockup.forms.rrect;rSize=0;strokeColor=#999999;fontColor=#999999;" vertex="1" parent="5FQkL91_oub3n9h8Phgb-78">
          <mxGeometry x="71.325625" y="129.6" width="20.37875" height="24" as="geometry"/>
        </mxCell>
        <mxCell id="5FQkL91_oub3n9h8Phgb-113" value="26" style="strokeWidth=1;shadow=0;dashed=0;align=center;html=1;shape=mxgraph.mockup.forms.rrect;rSize=0;strokeColor=#999999;fontColor=#999999;" vertex="1" parent="5FQkL91_oub3n9h8Phgb-78">
          <mxGeometry x="91.704375" y="129.6" width="20.37875" height="24" as="geometry"/>
        </mxCell>
        <mxCell id="5FQkL91_oub3n9h8Phgb-114" value="27" style="strokeWidth=1;shadow=0;dashed=0;align=center;html=1;shape=mxgraph.mockup.forms.rrect;rSize=0;strokeColor=#999999;fontColor=#999999;" vertex="1" parent="5FQkL91_oub3n9h8Phgb-78">
          <mxGeometry x="112.08312500000001" y="129.6" width="20.37875" height="24" as="geometry"/>
        </mxCell>
        <mxCell id="5FQkL91_oub3n9h8Phgb-115" value="28" style="strokeWidth=1;shadow=0;dashed=0;align=center;html=1;shape=mxgraph.mockup.forms.rrect;rSize=0;strokeColor=#999999;fontColor=#999999;" vertex="1" parent="5FQkL91_oub3n9h8Phgb-78">
          <mxGeometry x="132.46187500000002" y="129.6" width="20.37875" height="24" as="geometry"/>
        </mxCell>
        <mxCell id="5FQkL91_oub3n9h8Phgb-116" value="29" style="strokeWidth=1;shadow=0;dashed=0;align=center;html=1;shape=mxgraph.mockup.forms.rrect;rSize=0;strokeColor=#999999;fontColor=#999999;" vertex="1" parent="5FQkL91_oub3n9h8Phgb-78">
          <mxGeometry x="10.189375" y="153.6" width="20.37875" height="24" as="geometry"/>
        </mxCell>
        <mxCell id="5FQkL91_oub3n9h8Phgb-117" value="30" style="strokeWidth=1;shadow=0;dashed=0;align=center;html=1;shape=mxgraph.mockup.forms.rrect;rSize=0;strokeColor=#999999;fontColor=#999999;" vertex="1" parent="5FQkL91_oub3n9h8Phgb-78">
          <mxGeometry x="30.568125000000002" y="153.6" width="20.37875" height="24" as="geometry"/>
        </mxCell>
        <mxCell id="5FQkL91_oub3n9h8Phgb-118" value="31" style="strokeWidth=1;shadow=0;dashed=0;align=center;html=1;shape=mxgraph.mockup.forms.rrect;rSize=0;strokeColor=#999999;fontColor=#999999;" vertex="1" parent="5FQkL91_oub3n9h8Phgb-78">
          <mxGeometry x="50.946875000000006" y="153.6" width="20.37875" height="24" as="geometry"/>
        </mxCell>
        <mxCell id="5FQkL91_oub3n9h8Phgb-119" value="1" style="strokeWidth=1;shadow=0;dashed=0;align=center;html=1;shape=mxgraph.mockup.forms.rrect;rSize=0;strokeColor=#999999;fontColor=#999999;fillColor=#ddeeff;" vertex="1" parent="5FQkL91_oub3n9h8Phgb-78">
          <mxGeometry x="71.325625" y="153.6" width="20.37875" height="24" as="geometry"/>
        </mxCell>
        <mxCell id="5FQkL91_oub3n9h8Phgb-120" value="2" style="strokeWidth=1;shadow=0;dashed=0;align=center;html=1;shape=mxgraph.mockup.forms.rrect;rSize=0;strokeColor=#999999;fontColor=#999999;fillColor=#ddeeff;" vertex="1" parent="5FQkL91_oub3n9h8Phgb-78">
          <mxGeometry x="91.704375" y="153.6" width="20.37875" height="24" as="geometry"/>
        </mxCell>
        <mxCell id="5FQkL91_oub3n9h8Phgb-121" value="3" style="strokeWidth=1;shadow=0;dashed=0;align=center;html=1;shape=mxgraph.mockup.forms.rrect;rSize=0;strokeColor=#999999;fontColor=#999999;fillColor=#ddeeff;" vertex="1" parent="5FQkL91_oub3n9h8Phgb-78">
          <mxGeometry x="112.08312500000001" y="153.6" width="20.37875" height="24" as="geometry"/>
        </mxCell>
        <mxCell id="5FQkL91_oub3n9h8Phgb-122" value="4" style="strokeWidth=1;shadow=0;dashed=0;align=center;html=1;shape=mxgraph.mockup.forms.rrect;rSize=0;strokeColor=#999999;fontColor=#999999;fillColor=#ddeeff;" vertex="1" parent="5FQkL91_oub3n9h8Phgb-78">
          <mxGeometry x="132.46187500000002" y="153.6" width="20.37875" height="24" as="geometry"/>
        </mxCell>
        <mxCell id="5FQkL91_oub3n9h8Phgb-123" value="5" style="strokeWidth=1;shadow=0;dashed=0;align=center;html=1;shape=mxgraph.mockup.forms.rrect;rSize=0;strokeColor=#999999;fontColor=#999999;fillColor=#ddeeff;" vertex="1" parent="5FQkL91_oub3n9h8Phgb-78">
          <mxGeometry x="10.189375" y="177.6" width="20.37875" height="24" as="geometry"/>
        </mxCell>
        <mxCell id="5FQkL91_oub3n9h8Phgb-124" value="6" style="strokeWidth=1;shadow=0;dashed=0;align=center;html=1;shape=mxgraph.mockup.forms.rrect;rSize=0;strokeColor=#999999;fontColor=#999999;fillColor=#ddeeff;" vertex="1" parent="5FQkL91_oub3n9h8Phgb-78">
          <mxGeometry x="30.568125000000002" y="177.6" width="20.37875" height="24" as="geometry"/>
        </mxCell>
        <mxCell id="5FQkL91_oub3n9h8Phgb-125" value="7" style="strokeWidth=1;shadow=0;dashed=0;align=center;html=1;shape=mxgraph.mockup.forms.rrect;rSize=0;strokeColor=#999999;fontColor=#999999;fillColor=#ddeeff;" vertex="1" parent="5FQkL91_oub3n9h8Phgb-78">
          <mxGeometry x="50.946875000000006" y="177.6" width="20.37875" height="24" as="geometry"/>
        </mxCell>
        <mxCell id="5FQkL91_oub3n9h8Phgb-126" value="8" style="strokeWidth=1;shadow=0;dashed=0;align=center;html=1;shape=mxgraph.mockup.forms.rrect;rSize=0;strokeColor=#999999;fontColor=#999999;fillColor=#ddeeff;" vertex="1" parent="5FQkL91_oub3n9h8Phgb-78">
          <mxGeometry x="71.325625" y="177.6" width="20.37875" height="24" as="geometry"/>
        </mxCell>
        <mxCell id="5FQkL91_oub3n9h8Phgb-127" value="9" style="strokeWidth=1;shadow=0;dashed=0;align=center;html=1;shape=mxgraph.mockup.forms.rrect;rSize=0;strokeColor=#999999;fontColor=#999999;fillColor=#ddeeff;" vertex="1" parent="5FQkL91_oub3n9h8Phgb-78">
          <mxGeometry x="91.704375" y="177.6" width="20.37875" height="24" as="geometry"/>
        </mxCell>
        <mxCell id="5FQkL91_oub3n9h8Phgb-128" value="10" style="strokeWidth=1;shadow=0;dashed=0;align=center;html=1;shape=mxgraph.mockup.forms.rrect;rSize=0;strokeColor=#999999;fontColor=#999999;fillColor=#ddeeff;" vertex="1" parent="5FQkL91_oub3n9h8Phgb-78">
          <mxGeometry x="112.08312500000001" y="177.6" width="20.37875" height="24" as="geometry"/>
        </mxCell>
        <mxCell id="5FQkL91_oub3n9h8Phgb-129" value="11" style="strokeWidth=1;shadow=0;dashed=0;align=center;html=1;shape=mxgraph.mockup.forms.rrect;rSize=0;strokeColor=#999999;fontColor=#999999;fillColor=#ddeeff;" vertex="1" parent="5FQkL91_oub3n9h8Phgb-78">
          <mxGeometry x="132.46187500000002" y="177.6" width="20.37875" height="24" as="geometry"/>
        </mxCell>
        <mxCell id="5FQkL91_oub3n9h8Phgb-130" value="24" style="strokeWidth=1;shadow=0;dashed=0;align=center;html=1;shape=mxgraph.mockup.forms.rrect;rSize=0;strokeColor=#ff0000;fontColor=#ffffff;strokeWidth=2;fillColor=#008cff;" vertex="1" parent="5FQkL91_oub3n9h8Phgb-78">
          <mxGeometry x="50.946875000000006" y="129.6" width="20.37875" height="24" as="geometry"/>
        </mxCell>
        <mxCell id="5FQkL91_oub3n9h8Phgb-185" value="" style="edgeStyle=elbowEdgeStyle;elbow=vertical;endArrow=classic;html=1;entryX=0.5;entryY=0;entryDx=0;entryDy=0;" edge="1" parent="1" target="5FQkL91_oub3n9h8Phgb-186">
          <mxGeometry width="50" height="50" relative="1" as="geometry">
            <mxPoint x="238" y="500" as="sourcePoint"/>
            <mxPoint x="305" y="630" as="targetPoint"/>
          </mxGeometry>
        </mxCell>
        <mxCell id="5FQkL91_oub3n9h8Phgb-186" value="show the Album or History of the other photos that has been downlaoded in the local matchine" style="ellipse;shape=doubleEllipse;whiteSpace=wrap;html=1;labelBackgroundColor=#ffffff;strokeColor=none;fillColor=#f5f5f5;fontColor=#333333;" vertex="1" parent="1">
          <mxGeometry x="115.33" y="630" width="200" height="120" as="geometry"/>
        </mxCell>
        <mxCell id="5FQkL91_oub3n9h8Phgb-187" value="" style="edgeStyle=segmentEdgeStyle;endArrow=classic;html=1;" edge="1" parent="1" target="5FQkL91_oub3n9h8Phgb-188">
          <mxGeometry width="50" height="50" relative="1" as="geometry">
            <mxPoint x="277" y="419.99999999999994" as="sourcePoint"/>
            <mxPoint x="365" y="510" as="targetPoint"/>
          </mxGeometry>
        </mxCell>
        <mxCell id="5FQkL91_oub3n9h8Phgb-188" value="open calendar to chose from the picture of the day" style="ellipse;shape=doubleEllipse;whiteSpace=wrap;html=1;strokeColor=none;" vertex="1" parent="1">
          <mxGeometry x="315.33" y="490" width="119.67" height="80" as="geometry"/>
        </mxCell>
        <mxCell id="5FQkL91_oub3n9h8Phgb-189" value="Click any date on the Calendar and it wil show the picture of that day" style="shape=singleArrow;whiteSpace=wrap;html=1;labelBackgroundColor=#ffffff;" vertex="1" parent="1">
          <mxGeometry x="295" y="258" width="309.67" height="90" as="geometry"/>
        </mxCell>
        <mxCell id="5FQkL91_oub3n9h8Phgb-191" value="picture&#39;s description" style="shape=ext;double=1;rounded=0;whiteSpace=wrap;html=1;labelBackgroundColor=#ffffff;strokeColor=none;fillColor=#ffffff;opacity=50;" vertex="1" parent="1">
          <mxGeometry x="122.99000000000001" y="430" width="134.01" height="30" as="geometry"/>
        </mxCell>
        <mxCell id="5FQkL91_oub3n9h8Phgb-192" value="" style="edgeStyle=segmentEdgeStyle;endArrow=classic;html=1;" edge="1" parent="1">
          <mxGeometry width="50" height="50" relative="1" as="geometry">
            <mxPoint x="103.00000000000001" y="484.08000000000004" as="sourcePoint"/>
            <mxPoint x="60" y="654" as="targetPoint"/>
          </mxGeometry>
        </mxCell>
        <mxCell id="5FQkL91_oub3n9h8Phgb-194" value="Take you to Home page, which is today&#39;s image" style="ellipse;shape=doubleEllipse;whiteSpace=wrap;html=1;labelBackgroundColor=#ffffff;strokeColor=none;fillColor=#ffffff;opacity=50;" vertex="1" parent="1">
          <mxGeometry x="3" y="660" width="100" height="60" as="geometry"/>
        </mxCell>
        <mxCell id="5FQkL91_oub3n9h8Phgb-195" value="" style="verticalLabelPosition=bottom;verticalAlign=top;html=1;shadow=0;dashed=0;strokeWidth=1;shape=mxgraph.android.phone2;strokeColor=#c0c0c0;" vertex="1" parent="1">
          <mxGeometry x="360.97" y="600" width="201" height="470" as="geometry"/>
        </mxCell>
        <mxCell id="5FQkL91_oub3n9h8Phgb-196" value="" style="strokeWidth=1;html=1;shadow=0;dashed=0;shape=mxgraph.android.statusBar;align=center;fillColor=#000000;strokeColor=#ffffff;fontColor=#ffffff;fontSize=10;" vertex="1" parent="1">
          <mxGeometry x="370.97" y="643" width="181" height="15.82" as="geometry"/>
        </mxCell>
        <mxCell id="5FQkL91_oub3n9h8Phgb-198" value="" style="verticalLabelPosition=bottom;verticalAlign=top;html=1;shadow=0;dashed=0;strokeWidth=1;strokeColor=#21CCBB;shape=rect;fillColor=#21CCBB;" vertex="1" parent="1">
          <mxGeometry x="370.97" y="980" width="181" height="48.5" as="geometry"/>
        </mxCell>
        <mxCell id="5FQkL91_oub3n9h8Phgb-199" value="" style="shape=image;verticalLabelPosition=bottom;labelBackgroundColor=#ffffff;verticalAlign=top;aspect=fixed;imageAspect=0;image=data:image/png,iVBORw0KGgoAAAANSUhEUgAAABgAAAAYCAYAAADgdz34AAAABmJLR0QA/wD/AP+gvaeTAAAAoElEQVRIie3SsQnCYBCG4ccIgthaiRtYWoprpA64jytYuoMDCIKtvUMolrEwRYxJSMSQgHnhh587vnuLO3raZpD6x03MDn489IP/EaywblIQeD+IynT2im4Ica8TigveOacWJpmoJFdJcMAQ+1Rtm8ntvhVcMU16Y5xwxCiTm+BSV/DAMtOfY5YXxMJrL5UFm4JBZUR5gs6eaWUaF/S0zxNfyUBlzI9w+QAAAABJRU5ErkJggg==;" vertex="1" parent="1">
          <mxGeometry x="378.97" y="990" width="32.25" height="41.25" as="geometry"/>
        </mxCell>
        <mxCell id="5FQkL91_oub3n9h8Phgb-200" value="" style="shape=image;verticalLabelPosition=bottom;labelBackgroundColor=#ffffff;verticalAlign=top;aspect=fixed;imageAspect=0;image=data:image/png,iVBORw0KGgoAAAANSUhEUgAAABgAAAAYCAYAAADgdz34AAAABmJLR0QA/wD/AP+gvaeTAAAAOUlEQVRIiWNgGAUEACMB+f+UmsNEvFsGKcDlNWKDhqB5wy+IyA0anObSPIhGLRi1YNSC4WDBKCAIALMiAx6CERO/AAAAAElFTkSuQmCC;" vertex="1" parent="1">
          <mxGeometry x="502.97" y="987.25" width="31" height="40" as="geometry"/>
        </mxCell>
        <mxCell id="5FQkL91_oub3n9h8Phgb-257" value="" style="html=1;shadow=0;dashed=0;align=center;verticalAlign=middle;shape=mxgraph.arrows2.bendArrow;dy=15;dx=38;notch=0;arrowHead=55;rounded=1;labelBackgroundColor=#ffffff;rotation=-180;" vertex="1" parent="1">
          <mxGeometry x="599" y="590" width="154.67" height="360" as="geometry"/>
        </mxCell>
        <mxCell id="5FQkL91_oub3n9h8Phgb-261" value="For example&amp;nbsp;&lt;br&gt;its showing us the picture of&amp;nbsp;&lt;br&gt;October 24, 2014" style="shape=tapeData;whiteSpace=wrap;html=1;perimeter=ellipsePerimeter;labelBackgroundColor=#ffffff;strokeColor=#000000;fillColor=#ffffff;" vertex="1" parent="1">
          <mxGeometry x="172" y="800" width="162" height="170" as="geometry"/>
        </mxCell>
        <mxCell id="5FQkL91_oub3n9h8Phgb-264" value="picture&#39;s description" style="shape=ext;double=1;rounded=0;whiteSpace=wrap;html=1;labelBackgroundColor=#ffffff;strokeColor=none;fillColor=#ffffff;opacity=50;" vertex="1" parent="1">
          <mxGeometry x="399.96000000000004" y="940" width="134.01" height="30" as="geometry"/>
        </mxCell>
        <mxCell id="5FQkL91_oub3n9h8Phgb-266" value="" style="shape=image;verticalLabelPosition=bottom;labelBackgroundColor=#ffffff;verticalAlign=top;aspect=fixed;imageAspect=0;image=data:image/png,iVBORw0KGgoAAAANSUhEUgAAABgAAAAYCAYAAADgdz34AAAABmJLR0QA/wD/AP+gvaeTAAAAaUlEQVRIiWNgwA7+QzGxAKd6JhIMIQvQxYKjDAgvYvPmfwIYn/rDjFgUMWLRgA/gVY/NAqoCusTBERqafxjGIDXdEwJw8wYsH6D7iFQ+QQuoDkbjYDQOyAejcUDQPJr7gAWLzVQFNPcBACOSQfnE4kc2AAAAAElFTkSuQmCC;" vertex="1" parent="1">
          <mxGeometry x="504.47" y="900" width="30" height="30" as="geometry"/>
        </mxCell>
        <mxCell id="5FQkL91_oub3n9h8Phgb-267" value="" style="ellipse;shape=doubleEllipse;whiteSpace=wrap;html=1;aspect=fixed;fillColor=#f8cecc;strokeColor=none;" vertex="1" parent="1">
          <mxGeometry x="493.47" y="890" width="50" height="50" as="geometry"/>
        </mxCell>
        <mxCell id="5FQkL91_oub3n9h8Phgb-268" value="" style="shape=image;verticalLabelPosition=bottom;labelBackgroundColor=#ffffff;verticalAlign=top;aspect=fixed;imageAspect=0;image=data:image/png,iVBORw0KGgoAAAANSUhEUgAAABgAAAAYCAYAAADgdz34AAAABmJLR0QA/wD/AP+gvaeTAAAAaUlEQVRIiWNgwA7+QzGxAKd6JhIMIQvQxYKjDAgvYvPmfwIYn/rDjFgUMWLRgA/gVY/NAqoCusTBERqafxjGIDXdEwJw8wYsH6D7iFQ+QQuoDkbjYDQOyAejcUDQPJr7gAWLzVQFNPcBACOSQfnE4kc2AAAAAElFTkSuQmCC;" vertex="1" parent="1">
          <mxGeometry x="504.47" y="898.8199999999999" width="30" height="30" as="geometry"/>
        </mxCell>
        <mxCell id="5FQkL91_oub3n9h8Phgb-201" value="&lt;b&gt;image&lt;/b&gt;" style="verticalLabelPosition=bottom;verticalAlign=top;html=1;shadow=0;dashed=0;strokeWidth=1;strokeColor=none;shape=rect;fillColor=#21CCBB;" vertex="1" parent="1">
          <mxGeometry x="371.95000000000005" y="660" width="180" height="30" as="geometry"/>
        </mxCell>
        <mxCell id="5FQkL91_oub3n9h8Phgb-269" value="For example&amp;nbsp;&lt;br&gt;its showing us the picture of&amp;nbsp;&lt;br&gt;October 24, 2014" style="shape=tapeData;whiteSpace=wrap;html=1;perimeter=ellipsePerimeter;labelBackgroundColor=#ffffff;strokeColor=#000000;fillColor=#ffffff;" vertex="1" parent="1">
          <mxGeometry x="572.63" y="670" width="137.37" height="170" as="geometry"/>
        </mxCell>
        <mxCell id="5FQkL91_oub3n9h8Phgb-364" value="" style="verticalLabelPosition=bottom;verticalAlign=top;html=1;shadow=0;dashed=0;strokeWidth=1;shape=mxgraph.android.contact_badge_pressed;labelBackgroundColor=#ffffff;fillColor=#ffffff;opacity=40;" vertex="1" parent="1">
          <mxGeometry x="10" y="1170" width="60" height="60" as="geometry"/>
        </mxCell>
      </root>
    </mxGraphModel>
  </diagram>
</mxfile>
